# xmcd
#
# Track frame offsets:
#	150
#	18340
#	33789
#	54032
#	70421
#	81735
#	107442
#	122126
#	137083
#	155626
#	167463
#
# Disc length: 2398 seconds
#
# Revision: 1
# Processed by: cddbd v1.5.2PL0 Copyright (c) Steve Scherf et al.
# Submitted via: audiograbber 1.83.01
#
DISCID=88095c0b
DTITLE=William Elliott Whitmore - Animals in the Dark
DYEAR=1900
DGENRE=
TTITLE0=mutiny
TTITLE1=who stole the soul
TTITLE2=johnny law
TTITLE3=old devils
TTITLE4=hell or high water
TTITLE5=there's hope for you
TTITLE6=hard times
TTITLE7=life underground
TTITLE8=let the rain come in
TTITLE9=a good day to die
TTITLE10=good time people
EXTD=
EXTT0=
EXTT1=
EXTT2=
EXTT3=
EXTT4=
EXTT5=
EXTT6=
EXTT7=
EXTT8=
EXTT9=
EXTT10=
PLAYORDER=
